<svg width="150" height="34" viewBox="0 0 212 51" fill="none" xmlns="http://www.w3.org/2000/svg">
<path d="M90.5714 10.4545V41H86.9919L70.347 17.017H70.0487V41H66.3498V10.4545H69.9294L86.6339 34.4972H86.9322V10.4545H90.5714ZM107.101 41.4773C104.893 41.4773 102.989 40.9901 101.388 40.0156C99.7974 39.0312 98.5695 37.6591 97.7044 35.8991C96.8493 34.1293 96.4217 32.071 96.4217 29.7244C96.4217 27.3778 96.8493 25.3097 97.7044 23.5199C98.5695 21.7202 99.7726 20.3182 101.314 19.3139C102.865 18.2997 104.675 17.7926 106.743 17.7926C107.936 17.7926 109.114 17.9915 110.278 18.3892C111.441 18.7869 112.5 19.4332 113.454 20.3281C114.409 21.2131 115.17 22.3864 115.736 23.848C116.303 25.3097 116.587 27.1094 116.587 29.2472V30.7386H98.9274V27.696H113.007C113.007 26.4034 112.748 25.25 112.231 24.2358C111.724 23.2216 110.998 22.4212 110.054 21.8345C109.119 21.2479 108.015 20.9545 106.743 20.9545C105.341 20.9545 104.128 21.3026 103.104 21.9986C102.089 22.6847 101.309 23.5795 100.762 24.6832C100.215 25.7869 99.9416 26.9702 99.9416 28.233V30.2614C99.9416 31.9915 100.24 33.4581 100.837 34.6612C101.443 35.8544 102.283 36.7642 103.357 37.3906C104.431 38.0071 105.679 38.3153 107.101 38.3153C108.025 38.3153 108.861 38.1861 109.606 37.9276C110.362 37.6591 111.013 37.2614 111.56 36.7344C112.107 36.1974 112.53 35.5312 112.828 34.7358L116.229 35.6903C115.871 36.8438 115.269 37.858 114.424 38.733C113.579 39.598 112.535 40.2741 111.292 40.7614C110.049 41.2386 108.652 41.4773 107.101 41.4773ZM123.951 18.0909L129.439 27.4574L134.928 18.0909H138.985L131.587 29.5455L138.985 41H134.928L129.439 32.1108L123.951 41H119.894L127.172 29.5455L119.894 18.0909H123.951ZM153.97 18.0909V21.0739H142.098V18.0909H153.97ZM145.558 12.6023H149.078V34.4375C149.078 35.4318 149.223 36.1776 149.511 36.6747C149.809 37.1619 150.187 37.4901 150.644 37.6591C151.112 37.8182 151.604 37.8977 152.121 37.8977C152.509 37.8977 152.827 37.8778 153.076 37.8381C153.324 37.7884 153.523 37.7486 153.672 37.7188L154.388 40.8807C154.149 40.9702 153.816 41.0597 153.389 41.1491C152.961 41.2486 152.419 41.2983 151.763 41.2983C150.769 41.2983 149.794 41.0845 148.84 40.657C147.895 40.2294 147.11 39.5781 146.483 38.7031C145.867 37.8281 145.558 36.7244 145.558 35.392V12.6023ZM159.265 41V18.0909H162.785V41H159.265ZM161.055 14.2727C160.369 14.2727 159.777 14.0391 159.28 13.5717C158.793 13.1044 158.549 12.5426 158.549 11.8864C158.549 11.2301 158.793 10.6683 159.28 10.201C159.777 9.73366 160.369 9.5 161.055 9.5C161.741 9.5 162.328 9.73366 162.815 10.201C163.312 10.6683 163.561 11.2301 163.561 11.8864C163.561 12.5426 163.312 13.1044 162.815 13.5717C162.328 14.0391 161.741 14.2727 161.055 14.2727ZM179.434 18.0909V21.0739H167.084V18.0909H179.434ZM170.783 41V14.929C170.783 13.6165 171.091 12.5227 171.708 11.6477C172.324 10.7727 173.125 10.1165 174.109 9.67898C175.093 9.24148 176.132 9.02273 177.226 9.02273C178.091 9.02273 178.797 9.09233 179.344 9.23153C179.891 9.37074 180.299 9.5 180.567 9.61932L179.553 12.6619C179.374 12.6023 179.125 12.5277 178.807 12.4382C178.499 12.3487 178.091 12.304 177.584 12.304C176.421 12.304 175.581 12.5973 175.064 13.1839C174.557 13.7706 174.303 14.6307 174.303 15.7642V41H170.783ZM186.634 49.5909C186.037 49.5909 185.505 49.5412 185.038 49.4418C184.571 49.3523 184.247 49.2628 184.068 49.1733L184.963 46.071C185.818 46.2898 186.574 46.3693 187.23 46.3097C187.887 46.25 188.468 45.9567 188.975 45.4297C189.492 44.9126 189.965 44.0724 190.392 42.9091L191.049 41.1193L182.577 18.0909H186.395L192.719 36.3466H192.958L199.281 18.0909H203.1L193.375 44.3409C192.938 45.5241 192.396 46.5036 191.75 47.2791C191.103 48.0646 190.352 48.6463 189.497 49.0241C188.652 49.402 187.698 49.5909 186.634 49.5909Z" fill="black"/>
<path d="M28.0125 8C16.4114 8 7 15.8382 7 25.5C7 35.1618 16.4114 43 28.0125 43C39.6136 43 49.025 35.1618 49.025 25.5C49.025 15.8382 39.6136 8 28.0125 8ZM26.9177 39.5281V28.5511H19.5907L30.118 11.4719V22.4489H37.1713L26.9177 39.5281Z" fill="black"/>
</svg>
